<svg xmlns="http://www.w3.org/2000/svg" viewBox="0 0 250 250" fill="currentColor">
    <path
        d="M125 0C141.415 1.95808e-07 157.67 3.23322 172.835 9.51506C188.001 15.7969 201.781 25.0043 213.388 36.6117C224.996 48.219 234.203 61.9989 240.485 77.1646C246.767 92.3303 250 108.585 250 125C250 141.415 246.767 157.67 240.485 172.835C234.203 188.001 224.996 201.781 213.388 213.388C201.781 224.996 188.001 234.203 172.835 240.485C157.67 246.767 141.415 250 125 250V0Z"
        fill="black" />
    <path
        d="M150 90H168.041L187.095 137.031H187.905L206.959 90H225V160H210.811V114.438H210.236L192.331 159.658H182.669L164.764 114.268H164.189V160H150V90Z"
        fill="white" />
    <path
        d="M125 250C108.585 250 92.3303 246.767 77.1646 240.485C61.9988 234.203 48.219 224.996 36.6116 213.388C25.0043 201.781 15.7969 188.001 9.51504 172.835C3.23321 157.67 -8.28402e-06 141.415 0 125C8.28405e-06 108.585 3.23324 92.3302 9.51509 77.1645C15.7969 61.9988 25.0044 48.2189 36.6117 36.6116C48.2191 25.0043 61.999 15.7968 77.1647 9.51502C92.3304 3.23319 108.585 -1.58505e-05 125 0V250Z"
        fill="white" />
    <path
        d="M79.4907 110.518C79.1204 107.835 77.5309 105.751 74.7222 104.266C71.9136 102.781 68.1019 102.038 63.287 102.038C60.0154 102.038 57.2531 102.371 55 103.036C52.7469 103.679 51.0185 104.576 49.8148 105.729C48.642 106.882 48.0556 108.19 48.0556 109.653C47.9938 110.873 48.3488 111.937 49.1204 112.846C49.9228 113.755 51.0185 114.542 52.4074 115.207C53.7963 115.85 55.4012 116.415 57.2222 116.903C59.0432 117.368 60.9877 117.767 63.0556 118.1L71.5741 119.563C75.7099 120.228 79.5062 121.115 82.963 122.223C86.4198 123.332 89.4136 124.695 91.9445 126.314C94.4753 127.932 96.4352 129.838 97.8241 132.033C99.2438 134.228 99.9691 136.744 100 139.582C99.9691 143.75 98.4877 147.363 95.5556 150.423C92.6543 153.46 88.4568 155.821 82.963 157.506C77.5 159.169 70.9105 160 63.1944 160C55.5401 160 48.8735 159.158 43.1944 157.473C37.5463 155.788 33.1327 153.294 29.9537 149.99C26.8056 146.665 25.1543 142.553 25 137.653H44.3981C44.6142 139.937 45.5247 141.843 47.1296 143.373C48.7654 144.88 50.9414 146.022 53.6574 146.798C56.4043 147.552 59.5062 147.929 62.963 147.929C66.358 147.929 69.3056 147.574 71.8056 146.865C74.3364 146.155 76.2963 145.169 77.6852 143.905C79.0741 142.641 79.7685 141.189 79.7685 139.549C79.7685 138.019 79.1358 136.733 77.8704 135.691C76.6358 134.649 74.8148 133.762 72.4074 133.031C70.0309 132.299 67.1142 131.634 63.6574 131.036L53.3333 129.173C45.3395 127.777 39.0278 125.593 34.3981 122.622C29.7685 119.652 27.4691 115.65 27.5 110.618C27.4691 106.494 28.9969 102.892 32.0833 99.81C35.2006 96.7284 39.4753 94.323 44.9074 92.5938C50.3395 90.8646 56.5123 90 63.4259 90C70.463 90 76.6049 90.8646 81.8519 92.5938C87.1296 94.323 91.2346 96.7284 94.1667 99.81C97.0988 102.892 98.6111 106.461 98.7037 110.518H79.4907Z"
        fill="black" />
</svg>