<svg width="250" height="250" viewBox="0 0 250 250" fill="black" xmlns="http://www.w3.org/2000/svg">
    <rect width="250" height="250" fill="#1E1E1E" />
    <path
        d="M250 125C250 194.036 194.036 250 125 250C55.9644 250 0 194.036 0 125C0 55.9644 55.9644 0 125 0C194.036 0 250 55.9644 250 125Z"
        fill="black" />
    <path d="M0 0H128V250H0V0Z" fill="black" />
    <path
        d="M132 91H150.205L169.432 137.909H170.25L189.477 91H207.682V160.818H193.364V115.375H192.784L174.716 160.477H164.966L146.898 115.205H146.318V160.818H132V91Z"
        fill="white" />
    <path
        d="M110.125 110.034C109.852 107.284 108.682 105.148 106.614 103.625C104.545 102.102 101.739 101.341 98.1932 101.341C95.7841 101.341 93.75 101.682 92.0909 102.364C90.4318 103.023 89.1591 103.943 88.2727 105.125C87.4091 106.307 86.9773 107.648 86.9773 109.148C86.9318 110.398 87.1932 111.489 87.7614 112.42C88.3523 113.352 89.1591 114.159 90.1818 114.841C91.2045 115.5 92.3864 116.08 93.7273 116.58C95.0682 117.057 96.5 117.466 98.0227 117.807L104.295 119.307C107.341 119.989 110.136 120.898 112.682 122.034C115.227 123.17 117.432 124.568 119.295 126.227C121.159 127.886 122.602 129.841 123.625 132.091C124.67 134.341 125.205 136.92 125.227 139.83C125.205 144.102 124.114 147.807 121.955 150.943C119.818 154.057 116.727 156.477 112.682 158.205C108.659 159.909 103.807 160.761 98.125 160.761C92.4886 160.761 87.5795 159.898 83.3977 158.17C79.2386 156.443 75.9886 153.886 73.6477 150.5C71.3295 147.091 70.1136 142.875 70 137.852H84.2841C84.4432 140.193 85.1136 142.148 86.2955 143.716C87.5 145.261 89.1023 146.432 91.1023 147.227C93.125 148 95.4091 148.386 97.9545 148.386C100.455 148.386 102.625 148.023 104.466 147.295C106.33 146.568 107.773 145.557 108.795 144.261C109.818 142.966 110.33 141.477 110.33 139.795C110.33 138.227 109.864 136.909 108.932 135.841C108.023 134.773 106.682 133.864 104.909 133.114C103.159 132.364 101.011 131.682 98.4659 131.068L90.8636 129.159C84.9773 127.727 80.3295 125.489 76.9205 122.443C73.5114 119.398 71.8182 115.295 71.8409 110.136C71.8182 105.909 72.9432 102.216 75.2159 99.0568C77.5114 95.8977 80.6591 93.4318 84.6591 91.6591C88.6591 89.8864 93.2045 89 98.2955 89C103.477 89 108 89.8864 111.864 91.6591C115.75 93.4318 118.773 95.8977 120.932 99.0568C123.091 102.216 124.205 105.875 124.273 110.034H110.125Z"
        fill="black" />
</svg>